<?xml version="1.0" encoding="UTF-8" standalone="no"?>
<!-- Created with Inkscape (http://www.inkscape.org/) -->

<svg
   xmlns:dc="http://purl.org/dc/elements/1.1/"
   xmlns:cc="http://creativecommons.org/ns#"
   xmlns:rdf="http://www.w3.org/1999/02/22-rdf-syntax-ns#"
   xmlns:svg="http://www.w3.org/2000/svg"
   xmlns="http://www.w3.org/2000/svg"
   xmlns:sodipodi="http://sodipodi.sourceforge.net/DTD/sodipodi-0.dtd"
   xmlns:inkscape="http://www.inkscape.org/namespaces/inkscape"
   id="svg119222"
   version="1.1"
   inkscape:version="0.48.5 r10040"
   width="216.11349"
   height="177.87738"
   xml:space="preserve"
   sodipodi:docname="free_logo_IRD_2016_BLOC_FR_COUL.svg"><metadata
     id="metadata119228"><rdf:RDF><cc:Work
         rdf:about=""><dc:format>image/svg+xml</dc:format><dc:type
           rdf:resource="http://purl.org/dc/dcmitype/StillImage" /><dc:title></dc:title></cc:Work></rdf:RDF></metadata><defs
     id="defs119226"><clipPath
       clipPathUnits="userSpaceOnUse"
       id="clipPath119238"><path
         d="m 0,595.28 841.89,0 L 841.89,0 0,0 0,595.28 z"
         id="path119240"
         inkscape:connector-curvature="0" /></clipPath></defs><sodipodi:namedview
     pagecolor="#ffffff"
     bordercolor="#666666"
     borderopacity="1"
     objecttolerance="10"
     gridtolerance="10"
     guidetolerance="10"
     inkscape:pageopacity="0"
     inkscape:pageshadow="2"
     inkscape:window-width="1920"
     inkscape:window-height="1014"
     id="namedview119224"
     showgrid="false"
     inkscape:zoom="2.0185199"
     inkscape:cx="101.47673"
     inkscape:cy="137.92214"
     inkscape:window-x="0"
     inkscape:window-y="27"
     inkscape:window-maximized="1"
     inkscape:current-layer="g119230"
     fit-margin-top="0"
     fit-margin-left="0"
     fit-margin-right="0"
     fit-margin-bottom="0" /><g
     id="g119230"
     inkscape:groupmode="layer"
     inkscape:label="logo_IRD_2016_BLOC_FR_COUL"
     transform="matrix(1.25,0,0,-1.25,-380.24788,403.82975)"><g
       id="g119356"
       transform="translate(316.2657,262.3058)" /><g
       id="g119759"><g
         id="g119710"><g
           id="g119662"><path
             id="path119232"
             style="fill:#2b74b9;fill-opacity:1;fill-rule:nonzero;stroke:none"
             d="m 311.539,232.243 2.808,0 0,-11.473 -2.808,0 0,11.473 z"
             inkscape:connector-curvature="0" /><path
             d="m 316.8508,229.0335 2.664,0 0,-0.722 c 0,-0.273 -0.033,-0.514 -0.033,-0.514 l 0.033,0 c 0.385,0.642 1.171,1.429 2.631,1.429 1.669,0 2.969,-0.771 2.969,-3.098 l 0,-5.359 -2.776,0 0,4.846 c 0,0.77 -0.305,1.091 -0.915,1.091 -0.866,0 -1.396,-0.481 -1.636,-1.187 -0.113,-0.321 -0.161,-0.69 -0.161,-1.092 l 0,-3.658 -2.776,0 0,8.264 z"
             style="fill:#2b74b9;fill-opacity:1;fill-rule:nonzero;stroke:none"
             id="path119244"
             inkscape:connector-curvature="0" /><path
             d="m 327.7322,223.6581 c 0,0 0.915,-0.834 2.102,-0.834 0.417,0 0.818,0.112 0.818,0.385 0,0.722 -3.867,0.802 -3.867,3.498 0,1.556 1.492,2.519 3.402,2.519 1.926,0 2.904,-0.947 2.904,-0.947 l -0.946,-1.973 c 0,0 -0.802,0.674 -1.958,0.674 -0.417,0 -0.818,-0.113 -0.818,-0.402 0,-0.625 3.867,-0.722 3.867,-3.385 0,-1.413 -1.251,-2.616 -3.386,-2.616 -2.07,0 -3.305,1.22 -3.305,1.22 l 1.187,1.861 z"
             style="fill:#2b74b9;fill-opacity:1;fill-rule:nonzero;stroke:none"
             id="path119248"
             inkscape:connector-curvature="0" /><path
             d="m 335.2915,226.7226 -1.059,0 0,2.166 1.139,0 0,2.375 2.696,0 0,-2.375 1.733,0 0,-2.166 -1.733,0 0,-2.535 c 0,-0.931 0.947,-1.059 1.477,-1.059 0.224,0 0.368,0.016 0.368,0.016 l 0,-2.407 c 0,0 -0.304,-0.048 -0.753,-0.048 -1.316,0 -3.868,0.353 -3.868,3.129 l 0,2.904 z"
             style="fill:#2b74b9;fill-opacity:1;fill-rule:nonzero;stroke:none"
             id="path119252"
             inkscape:connector-curvature="0" /><path
             inkscape:connector-curvature="0"
             id="path119254"
             style="fill:#2b74b9;fill-opacity:1;fill-rule:nonzero;stroke:none"
             d="m 341.696,232.243 2.712,0 0,-2.167 -2.712,0 0,2.167 z m -0.032,-3.209 2.776,0 0,-8.264 -2.776,0 0,8.264 z" /><path
             d="m 347.0403,226.7226 -1.059,0 0,2.166 1.139,0 0,2.375 2.696,0 0,-2.375 1.733,0 0,-2.166 -1.733,0 0,-2.535 c 0,-0.931 0.947,-1.059 1.477,-1.059 0.224,0 0.368,0.016 0.368,0.016 l 0,-2.407 c 0,0 -0.304,-0.048 -0.753,-0.048 -1.316,0 -3.868,0.353 -3.868,3.129 l 0,2.904 z"
             style="fill:#2b74b9;fill-opacity:1;fill-rule:nonzero;stroke:none"
             id="path119258"
             inkscape:connector-curvature="0" /><path
             d="m 353.2999,229.0335 2.776,0 0,-4.846 c 0,-0.77 0.305,-1.091 0.882,-1.091 1.188,0 1.75,1.043 1.75,2.278 l 0,3.659 2.776,0 0,-8.264 -2.664,0 0,0.722 c 0,0.273 0.032,0.514 0.032,0.514 l -0.032,0 c -0.45,-0.883 -1.477,-1.428 -2.583,-1.428 -1.637,0 -2.937,0.77 -2.937,3.096 l 0,5.36 z"
             style="fill:#2b74b9;fill-opacity:1;fill-rule:nonzero;stroke:none"
             id="path119262"
             inkscape:connector-curvature="0" /><path
             d="m 364.0852,226.7226 -1.059,0 0,2.166 1.139,0 0,2.375 2.696,0 0,-2.375 1.733,0 0,-2.166 -1.733,0 0,-2.535 c 0,-0.931 0.947,-1.059 1.477,-1.059 0.224,0 0.368,0.016 0.368,0.016 l 0,-2.407 c 0,0 -0.304,-0.048 -0.753,-0.048 -1.316,0 -3.868,0.353 -3.868,3.129 l 0,2.904 z"
             style="fill:#2b74b9;fill-opacity:1;fill-rule:nonzero;stroke:none"
             id="path119266"
             inkscape:connector-curvature="0" /><path
             d="m 398.8951,227.0437 c 0.898,0 1.46,0.498 1.46,1.412 0,0.866 -0.321,1.38 -1.733,1.38 l -0.946,0 0,-2.792 1.219,0 z m -4.028,5.199 3.996,0 c 1.171,0 1.733,-0.08 2.23,-0.273 1.3,-0.497 2.119,-1.668 2.119,-3.337 0,-1.22 -0.578,-2.551 -1.718,-3.129 l 0,-0.032 c 0,0 0.161,-0.209 0.434,-0.691 l 2.23,-4.011 -3.129,0 -2.038,3.867 -1.315,0 0,-3.867 -2.809,0 0,11.473 z"
             style="fill:#2b74b9;fill-opacity:1;fill-rule:nonzero;stroke:none"
             id="path119270"
             inkscape:connector-curvature="0" /><path
             d="m 410.3225,225.9527 c 0,0.626 -0.433,1.187 -1.091,1.187 -0.802,0 -1.187,-0.578 -1.332,-1.187 l 2.423,0 z m -1.027,3.273 c 2.439,0 3.819,-1.701 3.819,-3.995 0,-0.273 -0.064,-0.867 -0.064,-0.867 l -5.215,0 c 0.209,-1.01 1.043,-1.476 1.925,-1.476 1.188,0 2.279,0.834 2.279,0.834 l 1.027,-1.941 c 0,0 -1.332,-1.203 -3.53,-1.203 -2.953,0 -4.541,2.134 -4.541,4.332 0,2.423 1.637,4.316 4.3,4.316"
             style="fill:#2b74b9;fill-opacity:1;fill-rule:nonzero;stroke:none"
             id="path119274"
             inkscape:connector-curvature="0" /><path
             d="m 418.7492,229.226 c 2.246,0 3.29,-1.251 3.29,-1.251 l -1.172,-1.862 c 0,0 -0.802,0.802 -1.942,0.802 -1.315,0 -1.973,-0.994 -1.973,-1.974 0,-0.978 0.674,-2.053 2.07,-2.053 1.155,0 2.262,0.994 2.262,0.994 l 1.011,-1.941 c 0,0 -1.236,-1.364 -3.546,-1.364 -2.952,0 -4.605,2.054 -4.605,4.332 0,2.215 1.636,4.317 4.605,4.317"
             style="fill:#2b74b9;fill-opacity:1;fill-rule:nonzero;stroke:none"
             id="path119278"
             inkscape:connector-curvature="0" /><path
             d="m 423.7253,232.2428 2.776,0 0,-3.627 c 0,-0.417 -0.032,-0.706 -0.032,-0.706 l 0.032,0 c 0.465,0.818 1.428,1.316 2.519,1.316 1.669,0 2.969,-0.77 2.969,-3.097 l 0,-5.359 -2.776,0 0,4.846 c 0,0.77 -0.305,1.091 -0.915,1.091 -0.85,0 -1.412,-0.498 -1.653,-1.219 -0.112,-0.321 -0.144,-0.674 -0.144,-1.06 l 0,-3.658 -2.776,0 0,11.473 z"
             style="fill:#2b74b9;fill-opacity:1;fill-rule:nonzero;stroke:none"
             id="path119282"
             inkscape:connector-curvature="0" /><path
             d="m 438.7952,225.9527 c 0,0.626 -0.433,1.187 -1.091,1.187 -0.802,0 -1.187,-0.578 -1.332,-1.187 l 2.423,0 z m -1.027,3.273 c 2.439,0 3.819,-1.701 3.819,-3.995 0,-0.273 -0.064,-0.867 -0.064,-0.867 l -5.215,0 c 0.209,-1.01 1.043,-1.476 1.925,-1.476 1.188,0 2.279,0.834 2.279,0.834 l 1.027,-1.941 c 0,0 -1.332,-1.203 -3.53,-1.203 -2.953,0 -4.541,2.134 -4.541,4.332 0,2.423 1.637,4.316 4.3,4.316"
             style="fill:#2b74b9;fill-opacity:1;fill-rule:nonzero;stroke:none"
             id="path119286"
             inkscape:connector-curvature="0" /><path
             d="m 443.2259,229.0335 2.664,0 0,-1.396 c 0,-0.273 -0.033,-0.514 -0.033,-0.514 l 0.033,0 c 0.353,1.124 1.396,2.054 2.631,2.054 0.161,0 0.321,-0.032 0.321,-0.032 l 0,-2.728 c 0,0 -0.224,0.049 -0.561,0.049 -0.658,0 -1.733,-0.209 -2.135,-1.445 -0.096,-0.305 -0.144,-0.674 -0.144,-1.123 l 0,-3.129 -2.776,0 0,8.264 z"
             style="fill:#2b74b9;fill-opacity:1;fill-rule:nonzero;stroke:none"
             id="path119290"
             inkscape:connector-curvature="0" /><path
             d="m 454.2516,229.226 c 2.246,0 3.29,-1.251 3.29,-1.251 l -1.172,-1.862 c 0,0 -0.802,0.802 -1.942,0.802 -1.315,0 -1.973,-0.994 -1.973,-1.974 0,-0.978 0.674,-2.053 2.07,-2.053 1.155,0 2.262,0.994 2.262,0.994 l 1.011,-1.941 c 0,0 -1.236,-1.364 -3.546,-1.364 -2.952,0 -4.606,2.054 -4.606,4.332 0,2.215 1.637,4.317 4.606,4.317"
             style="fill:#2b74b9;fill-opacity:1;fill-rule:nonzero;stroke:none"
             id="path119294"
             inkscape:connector-curvature="0" /><path
             d="m 459.2277,232.2428 2.776,0 0,-3.627 c 0,-0.417 -0.032,-0.706 -0.032,-0.706 l 0.032,0 c 0.465,0.818 1.428,1.316 2.519,1.316 1.669,0 2.969,-0.77 2.969,-3.097 l 0,-5.359 -2.776,0 0,4.846 c 0,0.77 -0.305,1.091 -0.915,1.091 -0.85,0 -1.412,-0.498 -1.653,-1.219 -0.112,-0.321 -0.144,-0.674 -0.144,-1.06 l 0,-3.658 -2.776,0 0,11.473 z"
             style="fill:#2b74b9;fill-opacity:1;fill-rule:nonzero;stroke:none"
             id="path119298"
             inkscape:connector-curvature="0" /><path
             d="m 474.2971,225.9527 c 0,0.626 -0.433,1.187 -1.091,1.187 -0.802,0 -1.187,-0.578 -1.332,-1.187 l 2.423,0 z m -1.027,3.273 c 2.439,0 3.819,-1.701 3.819,-3.995 0,-0.273 -0.064,-0.867 -0.064,-0.867 l -5.215,0 c 0.209,-1.01 1.043,-1.476 1.925,-1.476 1.188,0 2.279,0.834 2.279,0.834 l 1.027,-1.941 c 0,0 -1.332,-1.203 -3.53,-1.203 -2.953,0 -4.541,2.134 -4.541,4.332 0,2.423 1.637,4.316 4.3,4.316"
             style="fill:#2b74b9;fill-opacity:1;fill-rule:nonzero;stroke:none"
             id="path119302"
             inkscape:connector-curvature="0" /><path
             d="m 361.1628,203.2339 c 1.941,0 3.129,1.155 3.129,3.354 0,2.182 -1.236,3.305 -3.129,3.305 l -1.155,0 0,-6.659 1.155,0 z m -3.964,9.066 4.076,0 c 3.61,0 5.921,-2.102 5.921,-5.712 0,-3.611 -2.311,-5.761 -5.921,-5.761 l -4.076,0 0,11.473 z"
             style="fill:#2b74b9;fill-opacity:1;fill-rule:nonzero;stroke:none"
             id="path119306"
             inkscape:connector-curvature="0" /><path
             d="m 372.3971,212.3 2.744,0 -1.893,-2.407 -2.151,0 1.3,2.407 z m 0.947,-6.29 c 0,0.626 -0.433,1.187 -1.091,1.187 -0.802,0 -1.187,-0.578 -1.331,-1.187 l 2.422,0 z m -1.027,3.273 c 2.439,0 3.819,-1.701 3.819,-3.995 0,-0.273 -0.064,-0.867 -0.064,-0.867 l -5.215,0 c 0.209,-1.011 1.043,-1.476 1.926,-1.476 1.187,0 2.278,0.834 2.278,0.834 l 1.027,-1.941 c 0,0 -1.332,-1.204 -3.53,-1.204 -2.952,0 -4.541,2.134 -4.541,4.333 0,2.423 1.637,4.316 4.3,4.316"
             style="fill:#2b74b9;fill-opacity:1;fill-rule:nonzero;stroke:none"
             id="path119310"
             inkscape:connector-curvature="0" /><path
             d="m 376.3473,209.0907 2.92,0 1.284,-4.397 c 0.16,-0.53 0.305,-1.428 0.305,-1.428 l 0.032,0 c 0,0 0.144,0.883 0.305,1.428 l 1.267,4.397 2.937,0 -2.808,-8.264 -3.386,0 -2.856,8.264 z"
             style="fill:#2b74b9;fill-opacity:1;fill-rule:nonzero;stroke:none"
             id="path119314"
             inkscape:connector-curvature="0" /><path
             d="m 390.919,206.0099 c 0,0.626 -0.433,1.187 -1.091,1.187 -0.802,0 -1.187,-0.578 -1.332,-1.187 l 2.423,0 z m -1.027,3.273 c 2.439,0 3.819,-1.701 3.819,-3.995 0,-0.273 -0.064,-0.867 -0.064,-0.867 l -5.215,0 c 0.209,-1.01 1.043,-1.476 1.925,-1.476 1.188,0 2.279,0.834 2.279,0.834 l 1.027,-1.941 c 0,0 -1.332,-1.203 -3.53,-1.203 -2.953,0 -4.541,2.134 -4.541,4.332 0,2.423 1.637,4.316 4.3,4.316"
             style="fill:#2b74b9;fill-opacity:1;fill-rule:nonzero;stroke:none"
             id="path119318"
             inkscape:connector-curvature="0" /><path
             d="m 394.8682,212.3 2.776,0 0,-8.056 c 0,-0.786 0.144,-1.059 0.77,-1.059 0.177,0 0.337,0.017 0.337,0.017 l 0,-2.407 c 0,0 -0.385,-0.048 -0.834,-0.048 -1.477,0 -3.049,0.353 -3.049,3.129 l 0,8.424 z"
             style="fill:#2b74b9;fill-opacity:1;fill-rule:nonzero;stroke:none"
             id="path119322"
             inkscape:connector-curvature="0" /><path
             d="m 404.0867,202.9447 c 1.011,0 1.877,0.754 1.877,1.99 0,1.251 -0.866,2.038 -1.877,2.038 -1.011,0 -1.878,-0.787 -1.878,-2.038 0,-1.236 0.867,-1.99 1.878,-1.99 m -0.016,6.338 c 2.615,0 4.701,-1.749 4.701,-4.348 0,-2.584 -2.086,-4.3 -4.685,-4.3 -2.599,0 -4.686,1.716 -4.686,4.3 0,2.599 2.087,4.348 4.67,4.348"
             style="fill:#2b74b9;fill-opacity:1;fill-rule:nonzero;stroke:none"
             id="path119326"
             inkscape:connector-curvature="0" /><path
             d="m 414.2946,202.929 c 0.866,0 1.621,0.706 1.621,1.974 0,1.235 -0.659,2.037 -1.621,2.037 -0.834,0 -1.621,-0.609 -1.621,-2.037 0,-0.995 0.53,-1.974 1.621,-1.974 m -4.317,6.162 2.504,0 0,-0.418 c 0,-0.273 -0.033,-0.529 -0.033,-0.529 l 0.033,0 c 0,0 0.754,1.139 2.503,1.139 2.246,0 3.723,-1.765 3.723,-4.332 0,-2.616 -1.653,-4.317 -3.851,-4.317 -1.348,0 -2.102,0.787 -2.102,0.787 l -0.032,0 c 0,0 0.032,-0.289 0.032,-0.706 l 0,-3.098 -2.777,0 0,11.474 z"
             style="fill:#2b74b9;fill-opacity:1;fill-rule:nonzero;stroke:none"
             id="path119330"
             inkscape:connector-curvature="0" /><path
             d="m 424.2775,202.929 c 0.866,0 1.621,0.706 1.621,1.974 0,1.235 -0.659,2.037 -1.621,2.037 -0.834,0 -1.621,-0.609 -1.621,-2.037 0,-0.995 0.53,-1.974 1.621,-1.974 m -4.317,6.162 2.504,0 0,-0.418 c 0,-0.273 -0.033,-0.529 -0.033,-0.529 l 0.033,0 c 0,0 0.754,1.139 2.503,1.139 2.246,0 3.723,-1.765 3.723,-4.332 0,-2.616 -1.653,-4.317 -3.851,-4.317 -1.348,0 -2.102,0.787 -2.102,0.787 l -0.032,0 c 0,0 0.032,-0.289 0.032,-0.706 l 0,-3.098 -2.777,0 0,11.474 z"
             style="fill:#2b74b9;fill-opacity:1;fill-rule:nonzero;stroke:none"
             id="path119334"
             inkscape:connector-curvature="0" /><path
             d="m 434.6774,206.0099 c 0,0.626 -0.433,1.187 -1.091,1.187 -0.802,0 -1.187,-0.578 -1.332,-1.187 l 2.423,0 z m -1.027,3.273 c 2.439,0 3.819,-1.701 3.819,-3.995 0,-0.273 -0.064,-0.867 -0.064,-0.867 l -5.215,0 c 0.209,-1.01 1.043,-1.476 1.925,-1.476 1.188,0 2.279,0.834 2.279,0.834 l 1.027,-1.941 c 0,0 -1.332,-1.203 -3.53,-1.203 -2.953,0 -4.541,2.134 -4.541,4.332 0,2.423 1.637,4.316 4.3,4.316"
             style="fill:#2b74b9;fill-opacity:1;fill-rule:nonzero;stroke:none"
             id="path119338"
             inkscape:connector-curvature="0" /><path
             d="m 438.7394,209.0907 2.664,0 0,-0.722 c 0,-0.273 -0.033,-0.514 -0.033,-0.514 l 0.033,0 c 0.385,0.578 1.155,1.429 2.454,1.429 1.044,0 1.878,-0.466 2.311,-1.397 l 0.032,0 c 0.434,0.691 1.412,1.397 2.648,1.397 1.508,0 2.68,-0.819 2.68,-3.098 l 0,-5.359 -2.776,0 0,4.894 c 0,0.61 -0.113,1.043 -0.642,1.043 -0.883,0 -1.348,-0.642 -1.525,-1.556 -0.064,-0.289 -0.064,-0.626 -0.064,-0.963 l 0,-3.418 -2.776,0 0,4.894 c 0,0.61 -0.112,1.043 -0.642,1.043 -0.866,0 -1.315,-0.61 -1.508,-1.492 -0.064,-0.305 -0.08,-0.674 -0.08,-1.027 l 0,-3.418 -2.776,0 0,8.264 z"
             style="fill:#2b74b9;fill-opacity:1;fill-rule:nonzero;stroke:none"
             id="path119342"
             inkscape:connector-curvature="0" /><path
             d="m 457.9658,206.0099 c 0,0.626 -0.433,1.187 -1.091,1.187 -0.802,0 -1.187,-0.578 -1.332,-1.187 l 2.423,0 z m -1.027,3.273 c 2.439,0 3.819,-1.701 3.819,-3.995 0,-0.273 -0.064,-0.867 -0.064,-0.867 l -5.215,0 c 0.209,-1.01 1.043,-1.476 1.925,-1.476 1.188,0 2.279,0.834 2.279,0.834 l 1.027,-1.941 c 0,0 -1.332,-1.203 -3.53,-1.203 -2.953,0 -4.541,2.134 -4.541,4.332 0,2.423 1.637,4.316 4.3,4.316"
             style="fill:#2b74b9;fill-opacity:1;fill-rule:nonzero;stroke:none"
             id="path119346"
             inkscape:connector-curvature="0" /><path
             d="m 462.0277,209.0907 2.664,0 0,-0.722 c 0,-0.273 -0.033,-0.514 -0.033,-0.514 l 0.033,0 c 0.385,0.642 1.171,1.429 2.631,1.429 1.669,0 2.969,-0.771 2.969,-3.098 l 0,-5.359 -2.776,0 0,4.846 c 0,0.77 -0.305,1.091 -0.915,1.091 -0.866,0 -1.396,-0.481 -1.636,-1.187 -0.113,-0.321 -0.161,-0.69 -0.161,-1.092 l 0,-3.658 -2.776,0 0,8.264 z"
             style="fill:#2b74b9;fill-opacity:1;fill-rule:nonzero;stroke:none"
             id="path119350"
             inkscape:connector-curvature="0" /><path
             d="m 472.4118,206.7798 -1.059,0 0,2.166 1.139,0 0,2.375 2.696,0 0,-2.375 1.733,0 0,-2.166 -1.733,0 0,-2.535 c 0,-0.931 0.947,-1.059 1.477,-1.059 0.224,0 0.368,0.016 0.368,0.016 l 0,-2.407 c 0,0 -0.304,-0.048 -0.753,-0.048 -1.316,0 -3.868,0.353 -3.868,3.129 l 0,2.904 z"
             style="fill:#2b74b9;fill-opacity:1;fill-rule:nonzero;stroke:none"
             id="path119354"
             inkscape:connector-curvature="0" /><path
             inkscape:connector-curvature="0"
             id="path119358"
             style="fill:#e41f25;fill-opacity:1;fill-rule:nonzero;stroke:none"
             d="m 0,0 0.014,-0.67 0.024,-0.498 c 0.022,-0.364 0.06,-0.74 0.102,-1.115 0.091,-0.752 0.22,-1.51 0.39,-2.256 0.66,-2.98 2.058,-5.806 4.17,-7.261 1.037,-0.755 2.272,-1.173 3.649,-1.348 0.694,-0.065 1.422,-0.104 2.16,-0.037 l 1.387,0.086 1.111,0.168 c 3.114,0.482 6.17,1.698 8.752,3.468 2.605,1.76 4.819,4.049 6.572,6.568 0.884,1.228 1.679,2.608 2.31,3.854 0.503,1.068 0.947,2.446 1.267,3.796 0.659,2.737 0.983,5.578 1.2,8.207 0.41,5.286 0.375,9.837 0.353,13.015 L 33.369,43.72 c 0.008,2.935 0.679,6.101 2.379,8.837 0.818,1.372 1.868,2.625 3.082,3.666 1.197,1.065 2.559,1.921 3.985,2.554 0.709,0.341 1.441,0.582 2.176,0.819 0.76,0.206 1.427,0.387 2.281,0.513 l 1.269,0.162 c 0.365,0.034 0.571,0.035 0.865,0.055 l 0.409,0.022 0.633,0.014 0.819,0.01 6.56,0.077 c 0.47,0.01 1.268,0.007 1.98,-0.03 0.722,-0.041 1.441,-0.121 2.156,-0.231 1.428,-0.23 2.828,-0.603 4.171,-1.104 2.688,-1.002 5.14,-2.502 7.239,-4.346 4.19,-3.694 7.091,-8.701 8.155,-14.238 0.138,-0.697 0.231,-1.373 0.312,-2.11 l 0.092,-1.178 0.03,-0.819 0.004,-0.103 -10e-4,-0.272 -0.007,-0.265 -0.015,-0.531 C 81.93,34.868 81.926,34.512 81.9,34.16 81.822,33.463 81.773,32.755 81.652,32.066 81.205,29.298 80.317,26.64 79.045,24.168 77.773,21.697 76.11,19.403 74.022,17.426 c -1.688,-1.604 -2.643,-2.493 -4.855,-3.547 0,0 -1.785,-0.633 -0.758,-2.362 l 1.949,-3.291 3.9,-6.582 1.877,-3.168 c 0.457,-0.709 0.985,-1.37 1.573,-1.972 1.167,-1.218 2.616,-2.134 4.152,-2.751 0.774,-0.303 1.58,-0.506 2.395,-0.641 0.192,-0.021 0.441,-0.078 0.582,-0.08 0.152,-0.008 0.303,-0.023 0.453,-0.045 l 0.93,-0.023 0.239,-0.005 0.06,-10e-4 c -0.401,0.006 -0.077,0.002 -0.151,0.004 l 0.119,0.001 0.479,0.005 16.38,0.173 15.3,0.173 1.913,0.022 c 0.638,0.006 1.311,0.011 1.767,0.037 1.02,0.02 2.027,0.13 3.021,0.278 1.99,0.292 3.916,0.839 5.738,1.609 3.653,1.519 6.879,3.982 9.371,7.084 2.508,3.094 4.247,6.828 5.142,10.782 0.206,0.994 0.389,1.995 0.495,3.01 0.053,0.509 0.181,3.083 0.181,3.083 0.012,2.014 -0.168,4.09 -0.582,6.061 -0.821,3.959 -2.485,7.684 -4.887,10.778 -2.39,3.1 -5.487,5.565 -8.981,7.111 -1.742,0.788 -3.584,1.345 -5.485,1.666 -0.917,0.176 -1.997,0.276 -2.749,0.318 0,0 -3.616,0.198 -3.616,-3.18 l 0.297,-26.092 c 0,-9.241 -7.491,-16.732 -16.733,-16.732 l 0.54,48.241 c 0.022,0.743 -0.011,1.763 0.291,3.382 0.156,0.797 0.419,1.739 0.875,2.723 0.448,0.981 1.112,1.979 1.856,2.785 1.516,1.646 3.147,2.496 4.396,3.01 1.285,0.52 2.355,0.773 3.327,0.963 1.938,0.361 3.523,0.442 5.057,0.49 l 1.125,0.015 0.553,-0.001 0.701,-0.014 0.956,-0.034 0.493,-0.019 0.646,-0.048 c 0.865,-0.065 1.737,-0.139 2.49,-0.256 0.785,-0.096 1.566,-0.23 2.344,-0.387 3.116,-0.602 6.173,-1.599 9.051,-2.972 5.78,-2.713 10.802,-6.926 14.525,-11.985 3.746,-5.058 6.192,-10.949 7.306,-16.999 0.561,-3.037 0.77,-6.075 0.684,-9.157 l -0.032,-0.956 -0.088,-1.236 c -0.052,-0.85 -0.152,-1.594 -0.248,-2.351 -0.195,-1.518 -0.496,-3.024 -0.847,-4.518 -1.476,-5.96 -4.266,-11.657 -8.288,-16.414 -3.994,-4.763 -9.21,-8.574 -15.03,-10.848 -2.902,-1.15 -5.941,-1.933 -9.006,-2.321 -1.531,-0.196 -3.069,-0.321 -4.599,-0.325 -0.818,-0.02 -1.421,-0.006 -2.057,10e-4 l -1.913,0.021 -15.3,0.173 -16.38,0.173 -0.479,0.005 -0.688,0.02 -0.981,0.047 -1.451,0.145 c -0.494,0.052 -0.868,0.138 -1.307,0.21 -1.692,0.319 -3.356,0.803 -4.941,1.472 -3.164,1.348 -6.048,3.333 -8.361,5.85 -1.162,1.252 -2.193,2.623 -3.074,4.086 l -1.945,3.459 -3.742,6.673 c 0,0 -3.477,6.345 -3.825,7.011 -0.127,0.322 -0.24,0.649 -0.337,0.981 -0.194,0.665 -0.324,1.346 -0.389,2.03 -0.031,0.342 -0.049,0.684 -0.049,1.025 l 0.008,0.392 0.007,0.119 0.017,0.301 c 0.034,0.405 0.092,0.933 0.159,1.231 0.065,0.338 0.139,0.675 0.24,1.005 0.184,0.665 0.449,1.305 0.753,1.921 1.246,2.455 3.426,4.38 6.014,5.314 2.481,0.873 4.957,3.04 6.458,5.865 0.763,1.397 1.313,2.923 1.602,4.465 0.082,0.385 0.104,0.772 0.169,1.158 l 0.065,1.044 -0.011,0.82 -0.031,0.457 c -0.033,0.35 -0.074,0.76 -0.141,1.136 -0.495,3.077 -2.133,6.089 -4.457,8.23 -1.16,1.072 -2.485,1.913 -3.881,2.475 -0.698,0.281 -1.416,0.492 -2.143,0.63 -0.365,0.063 -0.732,0.115 -1.101,0.146 -0.379,0.024 -0.675,0.042 -1.297,0.046 l -6.56,0.078 -0.819,0.009 -0.206,0.003 -0.102,0.001 c 0.428,0.009 0.089,0.002 0.171,0.003 L 50.26,50.147 49.85,50.134 C 49.598,50.123 49.257,50.121 49.078,50.102 48.96,50.078 48.842,50.06 48.722,50.049 48.167,49.966 47.443,49.808 46.903,49.554 44.605,48.583 43.247,46.558 43.158,43.682 L 42.86,25.836 c -0.143,-3.3 -0.331,-8.026 -1.066,-13.8 -0.39,-2.891 -0.886,-6.038 -1.886,-9.454 -0.514,-1.72 -1.122,-3.46 -2.145,-5.37 -0.964,-1.689 -1.968,-3.225 -3.183,-4.765 -2.37,-3.06 -5.368,-5.889 -8.925,-8.04 -3.555,-2.166 -7.624,-3.574 -11.863,-4.007 l -1.65,-0.141 -1.389,-0.017 c -1.111,-0.034 -2.235,0.065 -3.369,0.243 -2.257,0.387 -4.578,1.31 -6.419,2.808 -1.876,1.463 -3.215,3.372 -4.15,5.279 -0.921,1.925 -1.483,3.881 -1.815,5.795 -0.167,0.958 -0.28,1.908 -0.346,2.854 -0.03,0.475 -0.053,0.946 -0.059,1.426 L -5.4,-0.587 -5.385,0 c 0.04,1.672 0.078,3.307 0.116,4.899 0.074,3.184 0.145,6.195 0.211,8.974 0.261,11.115 0.435,18.526 0.435,18.526 0,0 4.332,-0.195 4.38,-5.474 L 0,0 z"
             transform="translate(316.2657,262.3058)" /><path
             d="m 314.1703,316.2574 -5.744,-5.744 5.744,-5.744 5.744,5.744 -5.744,5.744 z m 9.972,-5.744 c 0,-5.507 -4.465,-9.972 -9.972,-9.972 -5.507,0 -9.972,4.465 -9.972,9.972 0,5.507 4.465,9.972 9.972,9.972 5.507,0 9.972,-4.465 9.972,-9.972"
             style="fill:#2b74b9;fill-opacity:1;fill-rule:nonzero;stroke:none"
             id="path119362"
             inkscape:connector-curvature="0" /><path
             d="m 377.8183,221.8816 c 0.772,0 1.498,0.562 1.498,1.884 0,0.925 -0.492,1.838 -1.486,1.838 -0.82,0 -1.498,-0.667 -1.498,-1.849 0,-1.136 0.608,-1.873 1.486,-1.873 m -0.281,4.998 c 1.311,0 1.72,-0.761 1.72,-0.761 l 0.024,0 c 0,0 -0.012,0.152 -0.012,0.339 l 0,2.622 1.487,0 0,-8.31 -1.405,0 0,0.492 c 0,0.222 0.024,0.386 0.024,0.386 l -0.024,0 c 0,0 -0.503,-1.018 -1.872,-1.018 -1.616,0 -2.645,1.275 -2.645,3.125 0,1.896 1.123,3.125 2.703,3.125"
             style="fill:#2b74b9;fill-opacity:1;fill-rule:nonzero;stroke:none"
             id="path119366"
             inkscape:connector-curvature="0" /><path
             d="m 386.3827,224.4914 c -0.023,0.808 -0.527,1.241 -1.182,1.241 -0.761,0 -1.288,-0.469 -1.428,-1.241 l 2.61,0 z m -1.147,2.388 c 1.72,0 2.645,-1.253 2.645,-2.833 0,-0.175 -0.035,-0.573 -0.035,-0.573 l -4.12,0 c 0.094,-1.042 0.901,-1.58 1.791,-1.58 0.96,0 1.72,0.655 1.72,0.655 l 0.574,-1.065 c 0,0 -0.913,-0.854 -2.4,-0.854 -1.977,0 -3.206,1.428 -3.206,3.125 0,1.837 1.252,3.125 3.031,3.125"
             style="fill:#2b74b9;fill-opacity:1;fill-rule:nonzero;stroke:none"
             id="path119370"
             inkscape:connector-curvature="0" /><path
             d="m 314.4785,201.9386 c 0.819,0 1.498,0.667 1.498,1.849 0,1.135 -0.608,1.873 -1.486,1.873 -0.773,0 -1.498,-0.562 -1.498,-1.885 0,-0.924 0.503,-1.837 1.486,-1.837 m -2.926,4.857 1.358,0 0,-0.433 c 0,-0.222 -0.024,-0.41 -0.024,-0.41 l 0.024,0 c 0,0 0.515,0.984 1.919,0.984 1.615,0 2.645,-1.276 2.645,-3.125 0,-1.896 -1.159,-3.125 -2.727,-3.125 -1.182,0 -1.708,0.819 -1.708,0.819 l -0.024,0 c 0,0 0.024,-0.211 0.024,-0.515 l 0,-2.505 -1.487,0 0,8.31 z"
             style="fill:#2b74b9;fill-opacity:1;fill-rule:nonzero;stroke:none"
             id="path119374"
             inkscape:connector-curvature="0" /><path
             d="m 322.2272,201.9505 c 0.96,0 1.767,0.749 1.767,1.861 0,1.1 -0.807,1.861 -1.767,1.861 -0.971,0 -1.779,-0.761 -1.779,-1.861 0,-1.112 0.808,-1.861 1.779,-1.861 m -0.012,4.986 c 1.826,0 3.289,-1.299 3.289,-3.125 0,-1.838 -1.463,-3.125 -3.277,-3.125 -1.826,0 -3.289,1.287 -3.289,3.125 0,1.826 1.463,3.125 3.277,3.125"
             style="fill:#2b74b9;fill-opacity:1;fill-rule:nonzero;stroke:none"
             id="path119378"
             inkscape:connector-curvature="0" /><path
             d="m 327.2957,206.7956 1.486,0 0,-3.534 c 0,-0.726 0.188,-1.217 0.925,-1.217 1.077,0 1.673,0.947 1.673,2.012 l 0,2.739 1.487,0 0,-5.969 -1.428,0 0,0.679 c 0,0.234 0.024,0.421 0.024,0.421 l -0.024,0 c -0.292,-0.62 -1.053,-1.24 -2.071,-1.24 -1.276,0 -2.072,0.644 -2.072,2.27 l 0,3.839 z"
             style="fill:#2b74b9;fill-opacity:1;fill-rule:nonzero;stroke:none"
             id="path119382"
             inkscape:connector-curvature="0" /><path
             d="m 335.185,206.7956 1.428,0 0,-1.03 c 0,-0.222 -0.024,-0.421 -0.024,-0.421 l 0.024,0 c 0.269,0.854 0.983,1.533 1.896,1.533 0.14,0 0.269,-0.023 0.269,-0.023 l 0,-1.463 c 0,0 -0.152,0.023 -0.351,0.023 -0.632,0 -1.346,-0.363 -1.627,-1.252 -0.094,-0.293 -0.129,-0.62 -0.129,-0.971 l 0,-2.365 -1.486,0 0,5.969 z"
             style="fill:#2b74b9;fill-opacity:1;fill-rule:nonzero;stroke:none"
             id="path119386"
             inkscape:connector-curvature="0" /><path
             d="m 343.5442,209.1364 1.475,0 0,-6.227 c 0,-0.655 0.222,-0.818 0.608,-0.818 0.117,0 0.223,0.011 0.223,0.011 l 0,-1.299 c 0,0 -0.223,-0.035 -0.469,-0.035 -0.819,0 -1.837,0.211 -1.837,1.919 l 0,6.449 z"
             style="fill:#2b74b9;fill-opacity:1;fill-rule:nonzero;stroke:none"
             id="path119390"
             inkscape:connector-curvature="0" /><path
             d="m 350.472,204.5486 c -0.023,0.808 -0.527,1.241 -1.182,1.241 -0.761,0 -1.288,-0.469 -1.428,-1.241 l 2.61,0 z m -1.147,2.388 c 1.72,0 2.645,-1.253 2.645,-2.833 0,-0.175 -0.035,-0.573 -0.035,-0.573 l -4.12,0 c 0.094,-1.042 0.901,-1.58 1.791,-1.58 0.96,0 1.72,0.655 1.72,0.655 l 0.574,-1.065 c 0,0 -0.913,-0.854 -2.4,-0.854 -1.977,0 -3.206,1.428 -3.206,3.125 0,1.837 1.252,3.125 3.031,3.125"
             style="fill:#2b74b9;fill-opacity:1;fill-rule:nonzero;stroke:none"
             id="path119394"
             inkscape:connector-curvature="0" /><path
             d="m 311.5554,189.1764 4.559,0 0,-1.008 -3.399,0 0,-2.719 2.895,0 0,-1.007 -2.895,0 0,-3.539 -1.16,0 0,8.273 z"
             style="fill:#2b74b9;fill-opacity:1;fill-rule:nonzero;stroke:none"
             id="path119398"
             inkscape:connector-curvature="0" /><path
             d="m 329.6728,185.2038 c 0.902,0 1.465,0.574 1.465,1.5 0,0.609 -0.235,1.043 -0.656,1.277 -0.223,0.118 -0.493,0.188 -1.137,0.188 l -1.336,0 0,-2.965 1.664,0 z m -2.824,3.973 2.531,0 c 0.867,0 1.23,-0.071 1.547,-0.188 0.844,-0.316 1.394,-1.148 1.394,-2.238 0,-1.055 -0.585,-1.945 -1.488,-2.238 l 0,-0.024 c 0,0 0.094,-0.105 0.246,-0.375 l 1.758,-3.211 -1.312,0 -1.747,3.293 -1.769,0 0,-3.293 -1.16,0 0,8.274 z"
             style="fill:#2b74b9;fill-opacity:1;fill-rule:nonzero;stroke:none"
             id="path119402"
             inkscape:connector-curvature="0" /><path
             d="m 346.0914,188.0396 c 0,0 -0.187,-0.75 -0.328,-1.172 l -0.926,-2.625 2.508,0 -0.914,2.625 c -0.141,0.422 -0.317,1.172 -0.317,1.172 l -0.023,0 z m 1.559,-4.758 -3.118,0 -0.82,-2.379 -1.195,0 2.976,8.274 1.219,0 2.977,-8.274 -1.207,0 -0.832,2.379 z"
             style="fill:#2b74b9;fill-opacity:1;fill-rule:nonzero;stroke:none"
             id="path119406"
             inkscape:connector-curvature="0" /><path
             d="m 360.096,189.1764 1.148,0 3.68,-5.379 c 0.305,-0.445 0.692,-1.195 0.692,-1.195 l 0.023,0 c 0,0 -0.082,0.738 -0.082,1.195 l 0,5.379 1.16,0 0,-8.273 -1.137,0 -3.691,5.367 c -0.305,0.457 -0.691,1.207 -0.691,1.207 l -0.024,0 c 0,0 0.082,-0.739 0.082,-1.207 l 0,-5.367 -1.16,0 0,8.273 z"
             style="fill:#2b74b9;fill-opacity:1;fill-rule:nonzero;stroke:none"
             id="path119410"
             inkscape:connector-curvature="0" /><path
             d="m 381.8003,189.3169 c 1.992,0 3.012,-1.09 3.012,-1.09 l -0.574,-0.867 c 0,0 -0.961,0.902 -2.391,0.902 -1.852,0 -3.059,-1.406 -3.059,-3.164 0,-1.769 1.231,-3.269 3.071,-3.269 1.558,0 2.554,1.078 2.554,1.078 l 0.621,-0.832 c 0,0 -1.136,-1.313 -3.211,-1.313 -2.484,0 -4.23,1.899 -4.23,4.325 0,2.402 1.805,4.23 4.207,4.23"
             style="fill:#2b74b9;fill-opacity:1;fill-rule:nonzero;stroke:none"
             id="path119414"
             inkscape:connector-curvature="0" /><path
             d="m 394.8516,189.1764 4.805,0 0,-1.008 -3.645,0 0,-2.59 2.965,0 0,-1.007 -2.965,0 0,-2.661 3.844,0 0,-1.007 -5.004,0 0,8.273 z"
             style="fill:#2b74b9;fill-opacity:1;fill-rule:nonzero;stroke:none"
             id="path119418"
             inkscape:connector-curvature="0" /></g></g></g></g></svg>